<svg width="152" height="171" viewBox="0 0 152 171" fill="none" xmlns="http://www.w3.org/2000/svg">
<g filter="url(#filter0_dd_549_10188)">
<path fill-rule="evenodd" clip-rule="evenodd" d="M26.0257 41.2934C35.9183 33.5381 64.9655 26 75.9993 26C87.0345 26 116.082 33.5381 125.974 41.2934C125.974 79.7775 128.773 126.927 75.9993 144.082C23.2271 126.927 26.0257 79.7775 26.0257 41.2934Z" stroke="url(#paint0_linear_549_10188)" stroke-width="2" stroke-miterlimit="22.9256" stroke-linejoin="round" shape-rendering="crispEdges"/>
</g>
<path fill-rule="evenodd" clip-rule="evenodd" d="M31.9391 45.123C31.9165 53.4702 31.8418 61.1486 32.2508 69.4887C33.8674 102.396 43.1576 126.387 75.9994 137.805C92.6403 132.018 105.484 122.199 112.677 105.527C120.597 87.1708 120.13 64.4472 120.062 44.4543C109.847 38.3483 85.7439 31.9555 75.9994 31.9555C66.2577 31.9555 42.1547 38.3483 31.9391 44.4529L31.9391 45.123Z" fill="url(#paint1_linear_549_10188)" fill-opacity="0.2" stroke="url(#paint2_linear_549_10188)" stroke-width="1.5" stroke-miterlimit="22.9256" stroke-linejoin="round"/>
<g filter="url(#filter1_d_549_10188)">
<path fill-rule="evenodd" clip-rule="evenodd" d="M75.8231 56.2397C81.5734 56.2397 86.2366 60.7765 86.2366 66.3724C86.2366 70.4381 83.7753 73.9441 80.2228 75.5575L83.5712 106.417H68.0737L71.4221 75.5575C67.8709 73.9441 65.4082 70.4381 65.4082 66.3724C65.4082 60.7765 70.0714 56.2397 75.8231 56.2397Z" fill="url(#paint3_linear_549_10188)" shape-rendering="crispEdges"/>
<path fill-rule="evenodd" clip-rule="evenodd" d="M75.8231 56.2397C81.5734 56.2397 86.2366 60.7765 86.2366 66.3724C86.2366 70.4381 83.7753 73.9441 80.2228 75.5575L83.5712 106.417H68.0737L71.4221 75.5575C67.8709 73.9441 65.4082 70.4381 65.4082 66.3724C65.4082 60.7765 70.0714 56.2397 75.8231 56.2397Z" stroke="url(#paint4_linear_549_10188)" stroke-width="1.5" stroke-miterlimit="22.9256" stroke-linejoin="round" shape-rendering="crispEdges"/>
</g>
<defs>
<filter id="filter0_dd_549_10188" x="-0.000488281" y="0" width="152.001" height="170.082" filterUnits="userSpaceOnUse" color-interpolation-filters="sRGB">
<feFlood flood-opacity="0" result="BackgroundImageFix"/>
<feColorMatrix in="SourceAlpha" type="matrix" values="0 0 0 0 0 0 0 0 0 0 0 0 0 0 0 0 0 0 127 0" result="hardAlpha"/>
<feOffset/>
<feGaussianBlur stdDeviation="12.5"/>
<feComposite in2="hardAlpha" operator="out"/>
<feColorMatrix type="matrix" values="0 0 0 0 0.784314 0 0 0 0 0.694118 0 0 0 0 0 0 0 0 1 0"/>
<feBlend mode="normal" in2="BackgroundImageFix" result="effect1_dropShadow_549_10188"/>
<feColorMatrix in="SourceAlpha" type="matrix" values="0 0 0 0 0 0 0 0 0 0 0 0 0 0 0 0 0 0 127 0" result="hardAlpha"/>
<feOffset/>
<feGaussianBlur stdDeviation="4"/>
<feComposite in2="hardAlpha" operator="out"/>
<feColorMatrix type="matrix" values="0 0 0 0 0.784314 0 0 0 0 0.694118 0 0 0 0 0 0 0 0 0.3 0"/>
<feBlend mode="normal" in2="effect1_dropShadow_549_10188" result="effect2_dropShadow_549_10188"/>
<feBlend mode="normal" in="SourceGraphic" in2="effect2_dropShadow_549_10188" result="shape"/>
</filter>
<filter id="filter1_d_549_10188" x="60.6582" y="51.4897" width="38.3286" height="67.6775" filterUnits="userSpaceOnUse" color-interpolation-filters="sRGB">
<feFlood flood-opacity="0" result="BackgroundImageFix"/>
<feColorMatrix in="SourceAlpha" type="matrix" values="0 0 0 0 0 0 0 0 0 0 0 0 0 0 0 0 0 0 127 0" result="hardAlpha"/>
<feOffset dx="4" dy="4"/>
<feGaussianBlur stdDeviation="4"/>
<feComposite in2="hardAlpha" operator="out"/>
<feColorMatrix type="matrix" values="0 0 0 0 0 0 0 0 0 0 0 0 0 0 0 0 0 0 0.15 0"/>
<feBlend mode="normal" in2="BackgroundImageFix" result="effect1_dropShadow_549_10188"/>
<feBlend mode="normal" in="SourceGraphic" in2="effect1_dropShadow_549_10188" result="shape"/>
</filter>
<linearGradient id="paint0_linear_549_10188" x1="148.357" y1="114.632" x2="-36.635" y2="23.0268" gradientUnits="userSpaceOnUse">
<stop stop-color="#D6A21E"/>
<stop offset="1" stop-color="#D6A21E" stop-opacity="0.2"/>
</linearGradient>
<linearGradient id="paint1_linear_549_10188" x1="10.1728" y1="32.1041" x2="99.8374" y2="112.06" gradientUnits="userSpaceOnUse">
<stop stop-color="white"/>
<stop offset="1" stop-color="white" stop-opacity="0"/>
</linearGradient>
<linearGradient id="paint2_linear_549_10188" x1="126.897" y1="48.854" x2="26.1282" y2="48.854" gradientUnits="userSpaceOnUse">
<stop stop-color="#A1A1AC"/>
<stop offset="1" stop-color="#A1A1AC" stop-opacity="0.5"/>
</linearGradient>
<linearGradient id="paint3_linear_549_10188" x1="104.337" y1="78.7833" x2="65.4082" y2="78.7833" gradientUnits="userSpaceOnUse">
<stop stop-color="#4A4A61"/>
<stop offset="1" stop-color="#2E2E3D"/>
</linearGradient>
<linearGradient id="paint4_linear_549_10188" x1="106.321" y1="75.5108" x2="39.0007" y2="75.5108" gradientUnits="userSpaceOnUse">
<stop stop-color="white"/>
<stop offset="1" stop-color="white" stop-opacity="0"/>
</linearGradient>
</defs>
</svg>
