<svg width="10" height="16" viewBox="0 0 10 16" fill="none" xmlns="http://www.w3.org/2000/svg">
<path d="M9.34776 1.85033e-06C9.47676 -1.14898e-05 9.60286 0.0327158 9.71012 0.0940437C9.81739 0.155372 9.90099 0.242545 9.95035 0.34454C9.99972 0.446535 10.0126 0.558769 9.98747 0.667046C9.9623 0.775323 9.90017 0.874779 9.80895 0.952836L1.57451 7.99998L9.80895 15.0471C9.93126 15.1518 9.99998 15.2938 9.99998 15.4418C9.99998 15.5899 9.93126 15.7318 9.80895 15.8365C9.68663 15.9412 9.52074 16 9.34776 16C9.17478 16 9.00888 15.9412 8.88657 15.8365L0.191054 8.39467C0.130483 8.34284 0.0824344 8.28131 0.0496537 8.21359C0.0168721 8.14587 -2.60699e-07 8.07328 -2.5429e-07 7.99998C-2.47882e-07 7.92667 0.0168722 7.85409 0.0496538 7.78636C0.0824344 7.71864 0.130483 7.65711 0.191054 7.60528L8.88657 0.163443C8.94707 0.111535 9.01895 0.0703725 9.0981 0.042323C9.17725 0.0142736 9.26209 -0.000108783 9.34776 1.85033e-06Z" fill="white"/>
</svg>
