<svg width="16" height="16" viewBox="0 0 16 16" fill="none" xmlns="http://www.w3.org/2000/svg">
<path d="M2.58334 5.7083C2.58333 5.63412 2.60532 5.56161 2.64653 5.49993C2.68773 5.43826 2.7463 5.39019 2.81483 5.3618C2.88336 5.33341 2.95876 5.32599 3.03151 5.34046C3.10426 5.35493 3.17108 5.39066 3.22353 5.44311L7.95834 10.178L12.6932 5.44311C12.7635 5.37278 12.8589 5.33327 12.9583 5.33327C13.0578 5.33327 13.1532 5.37278 13.2235 5.44311C13.2939 5.51344 13.3334 5.60883 13.3334 5.7083C13.3334 5.80776 13.2939 5.90315 13.2235 5.97348L8.22353 10.9735C8.18871 11.0083 8.14736 11.0359 8.10186 11.0548C8.05636 11.0736 8.00759 11.0833 7.95834 11.0833C7.90909 11.0833 7.86032 11.0736 7.81482 11.0548C7.76932 11.0359 7.72798 11.0083 7.69315 10.9735L2.69315 5.97348C2.65828 5.9387 2.63062 5.89736 2.61178 5.85185C2.59293 5.80634 2.58327 5.75756 2.58334 5.7083Z" fill="#ABABB1"/>
</svg>
