<svg width="12" height="13" viewBox="0 0 12 13" fill="none" xmlns="http://www.w3.org/2000/svg">
<path d="M11 1.125H9.375V0.5C9.375 0.400544 9.33549 0.305161 9.26517 0.234835C9.19484 0.164509 9.09946 0.125 9 0.125C8.90054 0.125 8.80516 0.164509 8.73483 0.234835C8.66451 0.305161 8.625 0.400544 8.625 0.5V1.125H3.375V0.5C3.375 0.400544 3.33549 0.305161 3.26516 0.234835C3.19484 0.164509 3.09946 0.125 3 0.125C2.90054 0.125 2.80516 0.164509 2.73484 0.234835C2.66451 0.305161 2.625 0.400544 2.625 0.5V1.125H1C0.768017 1.12526 0.545611 1.21754 0.381574 1.38157C0.217537 1.54561 0.125265 1.76802 0.125 2V12C0.125265 12.232 0.217537 12.4544 0.381574 12.6184C0.545611 12.7825 0.768017 12.8747 1 12.875H11C11.232 12.8747 11.4544 12.7825 11.6184 12.6184C11.7825 12.4544 11.8747 12.232 11.875 12V2C11.8747 1.76802 11.7825 1.54561 11.6184 1.38157C11.4544 1.21754 11.232 1.12526 11 1.125ZM1 1.875H2.625V2.5C2.625 2.59946 2.66451 2.69484 2.73484 2.76517C2.80516 2.83549 2.90054 2.875 3 2.875C3.09946 2.875 3.19484 2.83549 3.26516 2.76517C3.33549 2.69484 3.375 2.59946 3.375 2.5V1.875H8.625V2.5C8.625 2.59946 8.66451 2.69484 8.73483 2.76517C8.80516 2.83549 8.90054 2.875 9 2.875C9.09946 2.875 9.19484 2.83549 9.26517 2.76517C9.33549 2.69484 9.375 2.59946 9.375 2.5V1.875H11C11.0331 1.87505 11.0649 1.88824 11.0883 1.91167C11.1118 1.9351 11.125 1.96686 11.125 2V4.125H0.875V2C0.87505 1.96686 0.888235 1.9351 0.911666 1.91167C0.935098 1.88824 0.966863 1.87505 1 1.875V1.875ZM11 12.125H1C0.966863 12.125 0.935098 12.1118 0.911666 12.0883C0.888235 12.0649 0.87505 12.0331 0.875 12V4.875H11.125V12C11.125 12.0331 11.1118 12.0649 11.0883 12.0883C11.0649 12.1118 11.0331 12.125 11 12.125V12.125Z" fill="#ABABB1"/>
</svg>
