<svg width="38" height="28" viewBox="0 0 38 28" fill="none" xmlns="http://www.w3.org/2000/svg">
<path d="M36.3012 6.48989C35.9436 6.19131 35.5092 5.99929 35.0476 5.93575C34.5861 5.8722 34.1159 5.93969 33.6909 6.13051L25.7871 9.64348L21.1853 1.35989C20.9688 0.970153 20.652 0.645406 20.2677 0.419305C19.8835 0.193203 19.4458 0.0739746 19 0.0739746C18.5541 0.0739746 18.1164 0.193203 17.7322 0.419305C17.3479 0.645406 17.0311 0.970153 16.8146 1.35989L12.2125 9.64333L4.30762 6.12973C3.8823 5.94075 3.41268 5.87424 2.95161 5.9377C2.49055 6.00116 2.05635 6.19206 1.6979 6.48891C1.33946 6.78576 1.07099 7.17678 0.922727 7.61795C0.774464 8.05911 0.752293 8.5329 0.858709 8.98598L4.83433 25.9135C4.90998 26.2412 5.05163 26.55 5.25065 26.8212C5.44966 27.0923 5.70186 27.32 5.99183 27.4904C6.28334 27.6619 6.60635 27.7732 6.94168 27.8174C7.27701 27.8617 7.61782 27.8382 7.94387 27.7482C15.1767 25.7514 22.8152 25.7507 30.0484 27.7461C30.3743 27.836 30.715 27.8595 31.0501 27.8152C31.3853 27.7708 31.7081 27.6597 31.9995 27.4882C32.2893 27.3179 32.5415 27.0904 32.7405 26.8195C32.9395 26.5486 33.0812 26.24 33.157 25.9125L37.1398 8.98786C37.2482 8.53475 37.227 8.0603 37.0787 7.61864C36.9304 7.17699 36.6609 6.78591 36.3011 6.49004L36.3012 6.48989ZM25.2431 20.393C25.2261 20.5564 25.1771 20.7147 25.0988 20.8591C25.0206 21.0035 24.9146 21.131 24.787 21.2343C24.6593 21.3377 24.5126 21.4148 24.3551 21.4614C24.1976 21.5079 24.0325 21.5229 23.8692 21.5055C20.6319 21.1655 17.368 21.1655 14.1307 21.5055C13.8019 21.5385 13.4734 21.4399 13.2171 21.2314C12.9607 21.0228 12.7974 20.7212 12.7628 20.3925C12.7283 20.0639 12.8252 19.7349 13.0326 19.4775C13.2399 19.2202 13.5407 19.0554 13.8692 19.0193C17.2803 18.661 20.7196 18.661 24.1307 19.0193C24.294 19.0364 24.4523 19.0856 24.5966 19.1639C24.7408 19.2422 24.8682 19.3482 24.9716 19.4758C25.0749 19.6034 25.152 19.7501 25.1986 19.9075C25.2453 20.0649 25.2604 20.2299 25.2432 20.3932L25.2431 20.393Z" fill="url(#paint0_linear_2045_1771)"/>
<defs>
<linearGradient id="paint0_linear_2045_1771" x1="0.79248" y1="27.8392" x2="37.208" y2="27.8392" gradientUnits="userSpaceOnUse">
<stop stop-color="#B88400"/>
<stop offset="1" stop-color="#D6A21E"/>
</linearGradient>
</defs>
</svg>
