<?xml version="1.0" standalone="no"?>
<!DOCTYPE svg PUBLIC "-//W3C//DTD SVG 20010904//EN"
 "http://www.w3.org/TR/2001/REC-SVG-20010904/DTD/svg10.dtd">
<svg version="1.0" xmlns="http://www.w3.org/2000/svg"
 width="512.000000pt" height="512.000000pt" viewBox="0 0 512.000000 512.000000"
 preserveAspectRatio="xMidYMid meet">

<g transform="translate(0.000000,512.000000) scale(0.100000,-0.100000)"
fill="#000000" stroke="none">
<path d="M955 4255 c-145 -27 -275 -100 -369 -207 -55 -61 -129 -209 -145
-286 -7 -36 -11 -327 -11 -885 0 -927 -3 -885 70 -1032 89 -181 255 -304 460
-341 57 -10 209 -13 623 -14 l547 0 0 -105 0 -105 -125 0 c-138 0 -178 -10
-228 -58 -44 -41 -67 -94 -67 -152 0 -88 38 -152 115 -193 39 -21 51 -22 499
-25 532 -3 537 -3 604 73 96 110 68 265 -59 329 -49 24 -63 26 -181 26 l-128
0 0 105 0 105 213 2 212 3 5 495 c6 541 4 522 71 651 76 147 212 263 372 316
l82 27 378 4 379 4 -4 371 c-4 372 -4 372 -31 452 -71 212 -229 365 -447 432
-50 16 -169 18 -1410 19 -1084 2 -1369 0 -1425 -11z"/>
<path d="M3529 2532 c-39 -20 -62 -41 -84 -77 l-30 -48 -3 -666 c-2 -483 0
-681 8 -720 10 -43 22 -64 60 -101 70 -71 78 -72 605 -68 l450 3 45 25 c24 14
58 45 75 68 l30 44 3 691 c2 481 0 704 -8 730 -14 49 -65 106 -115 128 -37 17
-77 19 -511 19 l-472 0 -53 -28z"/>
</g>
</svg>
