<svg width="20" height="20" viewBox="0 0 20 20" fill="none" xmlns="http://www.w3.org/2000/svg">
<path d="M10 0.4375C8.10872 0.4375 6.25991 0.998331 4.68736 2.04907C3.11482 3.09981 1.88917 4.59327 1.16541 6.34059C0.441643 8.08791 0.252274 10.0106 0.621245 11.8656C0.990216 13.7205 1.90096 15.4244 3.2383 16.7617C4.57564 18.099 6.27951 19.0098 8.13445 19.3788C9.9894 19.7477 11.9121 19.5584 13.6594 18.8346C15.4067 18.1108 16.9002 16.8852 17.9509 15.3126C19.0017 13.7401 19.5625 11.8913 19.5625 10C19.5597 7.46474 18.5513 5.03414 16.7586 3.24144C14.9659 1.44874 12.5353 0.440354 10 0.4375ZM10 18.4375C8.33122 18.4375 6.69992 17.9426 5.31238 17.0155C3.92484 16.0884 2.84338 14.7706 2.20477 13.2289C1.56616 11.6871 1.39907 9.99064 1.72463 8.35393C2.05019 6.71721 2.85379 5.21379 4.03379 4.03379C5.2138 2.85378 6.71722 2.05019 8.35393 1.72462C9.99064 1.39906 11.6871 1.56615 13.2289 2.20477C14.7706 2.84338 16.0884 3.92484 17.0155 5.31238C17.9427 6.69992 18.4375 8.33122 18.4375 10C18.435 12.237 17.5452 14.3816 15.9634 15.9634C14.3816 17.5452 12.237 18.435 10 18.4375ZM13.5798 10.1702C13.632 10.2225 13.6734 10.2845 13.7017 10.3527C13.73 10.421 13.7445 10.4942 13.7445 10.568C13.7445 10.6419 13.73 10.7151 13.7017 10.7833C13.6734 10.8516 13.632 10.9136 13.5798 10.9658L10.3978 14.1477C10.3456 14.1999 10.2835 14.2414 10.2153 14.2696C10.147 14.2979 10.0739 14.3125 10 14.3125C9.92613 14.3125 9.85297 14.2979 9.78472 14.2696C9.71647 14.2414 9.65446 14.1999 9.60222 14.1477L6.42035 10.9658C6.31485 10.8603 6.25558 10.7173 6.25557 10.5681C6.25556 10.4189 6.31482 10.2758 6.4203 10.1703C6.52579 10.0648 6.66886 10.0055 6.81805 10.0055C6.96724 10.0055 7.11032 10.0648 7.21582 10.1702L9.4375 12.392V6.25C9.4375 6.10082 9.49677 5.95774 9.60226 5.85225C9.70775 5.74676 9.85082 5.6875 10 5.6875C10.1492 5.6875 10.2923 5.74676 10.3978 5.85225C10.5032 5.95774 10.5625 6.10082 10.5625 6.25V12.392L12.7842 10.1702C12.8364 10.118 12.8984 10.0766 12.9667 10.0483C13.0349 10.02 13.1081 10.0055 13.182 10.0055C13.2558 10.0055 13.329 10.02 13.3973 10.0483C13.4655 10.0766 13.5275 10.118 13.5798 10.1702Z" fill="white"/>
</svg>
