<svg width="31" height="36" viewBox="0 0 31 36" fill="none" xmlns="http://www.w3.org/2000/svg">
<path d="M30.7502 29.2499C30.7508 30.1684 30.549 31.0758 30.1591 31.9074C29.7692 32.739 29.2008 33.4745 28.4943 34.0615C27.7878 34.6484 26.9607 35.0725 26.0717 35.3034C25.1827 35.5344 24.2537 35.5665 23.3509 35.3977C22.4481 35.2288 21.5936 34.8629 20.8482 34.3263C20.1028 33.7896 19.4849 33.0952 19.0384 32.2925C18.5919 31.4899 18.3278 30.5986 18.2649 29.6823C18.2019 28.766 18.3418 27.847 18.6744 26.9909L11.4716 22.3606C10.6042 23.2512 9.49097 23.8629 8.27416 24.1175C7.05734 24.3721 5.79224 24.258 4.64058 23.7899C3.48892 23.3217 2.50304 22.5208 1.80896 21.4894C1.11488 20.458 0.744141 19.2431 0.744141 17.9999C0.744141 16.7568 1.11488 15.5418 1.80896 14.5105C2.50304 13.4791 3.48892 12.6782 4.64058 12.21C5.79224 11.7419 7.05734 11.6278 8.27416 11.8824C9.49097 12.137 10.6042 12.7487 11.4716 13.6393L18.6744 9.009C18.1104 7.56181 18.104 5.95674 18.6564 4.50509C19.2088 3.05344 20.2806 1.85866 21.664 1.15247C23.0473 0.446273 24.6437 0.278994 26.1434 0.683072C27.6431 1.08715 28.9393 2.03379 29.7806 3.33939C30.6219 4.645 30.9484 6.21653 30.6967 7.74919C30.445 9.28186 29.6331 10.6664 28.4184 11.6344C27.2037 12.6024 25.6728 13.0847 24.1226 12.9879C22.5725 12.8911 21.1135 12.2221 20.0286 11.1106L12.826 15.7407C13.3917 17.1937 13.3917 18.8061 12.826 20.2592L20.0286 24.8895C20.8955 23.9988 22.0083 23.3871 23.2248 23.1324C24.4413 22.8778 25.7061 22.9919 26.8574 23.4602C28.0087 23.9284 28.9941 24.7294 29.6876 25.7608C30.381 26.7922 30.751 28.0071 30.7502 29.2499V29.2499Z" fill="url(#paint0_linear_2067_1416)"/>
<defs>
<linearGradient id="paint0_linear_2067_1416" x1="0.744141" y1="35.5042" x2="30.7796" y2="35.5042" gradientUnits="userSpaceOnUse">
<stop stop-color="#B88400"/>
<stop offset="1" stop-color="#D6A21E"/>
</linearGradient>
</defs>
</svg>
