<?xml version="1.0" standalone="no"?>
<!DOCTYPE svg PUBLIC "-//W3C//DTD SVG 20010904//EN"
 "http://www.w3.org/TR/2001/REC-SVG-20010904/DTD/svg10.dtd">
<svg version="1.0" xmlns="http://www.w3.org/2000/svg"
 width="512.000000pt" height="512.000000pt" viewBox="0 0 512.000000 512.000000"
 preserveAspectRatio="xMidYMid meet">

<g transform="translate(0.000000,512.000000) scale(0.100000,-0.100000)"
fill="#000000" stroke="none">
<path d="M2042 5100 c-184 -48 -331 -174 -407 -348 -10 -23 -16 -44 -14 -46 7
-5 1214 -443 1217 -441 5 4 -48 339 -63 397 -40 160 -169 320 -315 392 -135
66 -281 82 -418 46z"/>
<path d="M885 4590 c-134 -28 -247 -106 -310 -214 -42 -71 -247 -644 -248
-691 0 -48 23 -96 57 -119 24 -15 1588 -589 1591 -583 18 29 404 1121 398
1126 -8 8 -1207 445 -1278 466 -57 17 -163 25 -210 15z"/>
<path d="M3515 4594 c-104 -22 -200 -62 -264 -112 -87 -66 -299 -261 -288
-265 200 -76 1209 -438 1212 -435 9 8 34 121 41 177 9 80 -18 207 -61 298 -83
169 -236 289 -422 328 -64 14 -173 18 -218 9z"/>
<path d="M2460 3440 c-112 -308 -201 -561 -199 -563 15 -12 271 -98 276 -93
13 13 410 1117 403 1121 -13 8 -257 95 -267 95 -5 0 -101 -252 -213 -560z"/>
<path d="M3221 3773 c-28 -69 -400 -1098 -398 -1100 10 -9 1549 -565 1578
-569 49 -8 103 11 132 45 21 26 221 558 247 658 16 65 14 181 -5 238 -39 114
-123 218 -218 266 -21 11 -321 123 -665 249 -345 125 -634 231 -643 235 -11 4
-19 -2 -28 -22z"/>
<path d="M430 2668 c-18 -13 -43 -36 -54 -51 l-21 -28 0 -1107 c0 -1050 1
-1110 18 -1160 58 -165 188 -282 346 -312 32 -6 274 -10 592 -10 l539 0 0
1345 0 1345 -694 0 -693 0 -33 -22z"/>
<path d="M2150 1296 l0 -1296 150 0 150 0 0 1244 0 1244 -126 46 c-69 25 -137
49 -150 52 l-24 6 0 -1296z"/>
<path d="M2750 1185 l0 -1185 548 0 c453 0 558 3 611 15 186 44 318 198 341
396 5 46 10 384 10 750 0 626 -1 667 -17 674 -99 39 -1473 535 -1482 535 -8 0
-11 -314 -11 -1185z"/>
</g>
</svg>
