<svg width="48" height="30" viewBox="0 0 48 30" fill="none" xmlns="http://www.w3.org/2000/svg">
<mask id="mask0_2112_1755" style="mask-type:alpha" maskUnits="userSpaceOnUse" x="0" y="0" width="48" height="30">
<rect width="48" height="30" rx="4" fill="white"/>
</mask>
<g mask="url(#mask0_2112_1755)">
<path d="M51.5152 0H-2.78784V30H51.5152V0Z" fill="url(#paint0_linear_2112_1755)"/>
<path d="M34.3078 18.5081C35.1097 16.2347 35.1094 13.7623 34.3068 11.4891C34.2939 11.4452 34.2784 11.402 34.2604 11.3599C33.4982 9.28778 32.1042 7.49682 30.2683 6.23092C28.4323 4.96503 26.2437 4.28576 24.0005 4.28564C21.7573 4.28553 19.5686 4.96456 17.7325 6.23026C15.8965 7.49595 14.5023 9.28677 13.7399 11.3588C13.7215 11.4018 13.7056 11.4459 13.6924 11.4907C12.8898 13.7652 12.8903 16.2389 13.6938 18.5131C13.7064 18.5557 13.7215 18.5975 13.7389 18.6384C14.5008 20.7107 15.8945 22.5019 17.7303 23.7681C19.5661 25.0342 21.7547 25.7138 23.9979 25.7142C26.2412 25.7146 28.43 25.0359 30.2663 23.7704C32.1026 22.5049 33.497 20.7142 34.2596 18.6422C34.2784 18.5985 34.2945 18.5537 34.3078 18.5081ZM21.9973 19.3652H26.0026C25.5395 20.5535 24.861 21.6496 23.9999 22.6003C23.1389 21.6496 22.4604 20.5535 21.9973 19.3651V19.3652ZM21.3371 16.9842C21.1165 15.6703 21.1165 14.3298 21.3371 13.0159H26.6628C26.8833 14.3298 26.8833 15.6703 26.6628 16.9842H21.3371ZM15.5151 15C15.5152 14.3313 15.5975 13.6652 15.76 13.0158H18.8817C18.7027 14.3328 18.7027 15.6672 18.8817 16.9841H15.76C15.5975 16.3348 15.5152 15.6686 15.5151 15ZM26.0027 10.6349H21.9972C22.4603 9.44651 23.1388 8.35042 23.9999 7.39971C24.861 8.35042 25.5395 9.44651 26.0027 10.6349ZM29.1182 13.0158H32.2398C32.5665 14.3192 32.5665 15.6808 32.2398 16.9841H29.1181C29.2971 15.6672 29.2971 14.3328 29.1181 13.0158H29.1182ZM31.2238 10.6349H28.5844C28.1956 9.40346 27.6253 8.2346 26.8916 7.16549C28.6915 7.81123 30.2175 9.03334 31.2238 10.6349ZM21.1082 7.16558C20.3746 8.23467 19.8043 9.40349 19.4155 10.6349H16.7761C17.7824 9.03338 19.3084 7.81131 21.1082 7.16558ZM16.7761 19.3651H19.4155C19.8043 20.5965 20.3746 21.7654 21.1083 22.8345C19.3084 22.1888 17.7824 20.9667 16.776 19.3652L16.7761 19.3651ZM26.8915 22.8345C27.6252 21.7654 28.1955 20.5966 28.5844 19.3652H31.2238C30.2174 20.9667 28.6914 22.1888 26.8915 22.8345Z" fill="white"/>
</g>
<defs>
<linearGradient id="paint0_linear_2112_1755" x1="-2.78784" y1="30" x2="51.5152" y2="30" gradientUnits="userSpaceOnUse">
<stop stop-color="#B88400"/>
<stop offset="1" stop-color="#D6A21E"/>
</linearGradient>
</defs>
</svg>
