<svg width="18" height="16" viewBox="0 0 18 16" fill="none" xmlns="http://www.w3.org/2000/svg">
<path d="M13.8125 8C13.8125 8.14918 13.7532 8.29226 13.6477 8.39775C13.5423 8.50324 13.3992 8.5625 13.25 8.5625H0.75C0.600816 8.5625 0.457742 8.50324 0.352252 8.39775C0.246763 8.29226 0.1875 8.14918 0.1875 8C0.1875 7.85082 0.246763 7.70774 0.352252 7.60225C0.457742 7.49676 0.600816 7.4375 0.75 7.4375H13.25C13.3992 7.4375 13.5423 7.49676 13.6477 7.60225C13.7532 7.70774 13.8125 7.85082 13.8125 8ZM0.75 1.5625H17.25C17.3992 1.5625 17.5423 1.50324 17.6477 1.39775C17.7532 1.29226 17.8125 1.14918 17.8125 1C17.8125 0.850816 17.7532 0.707742 17.6477 0.602252C17.5423 0.496763 17.3992 0.4375 17.25 0.4375H0.75C0.600816 0.4375 0.457742 0.496763 0.352252 0.602252C0.246763 0.707742 0.1875 0.850816 0.1875 1C0.1875 1.14918 0.246763 1.29226 0.352252 1.39775C0.457742 1.50324 0.600816 1.5625 0.75 1.5625ZM17.25 14.4375H0.75C0.600816 14.4375 0.457742 14.4968 0.352252 14.6023C0.246763 14.7077 0.1875 14.8508 0.1875 15C0.1875 15.1492 0.246763 15.2923 0.352252 15.3977C0.457742 15.5032 0.600816 15.5625 0.75 15.5625H17.25C17.3992 15.5625 17.5423 15.5032 17.6477 15.3977C17.7532 15.2923 17.8125 15.1492 17.8125 15C17.8125 14.8508 17.7532 14.7077 17.6477 14.6023C17.5423 14.4968 17.3992 14.4375 17.25 14.4375Z" fill="white"/>
</svg>
