<?xml version="1.0" standalone="no"?>
<!DOCTYPE svg PUBLIC "-//W3C//DTD SVG 20010904//EN"
 "http://www.w3.org/TR/2001/REC-SVG-20010904/DTD/svg10.dtd">
<svg version="1.0" xmlns="http://www.w3.org/2000/svg"
 width="512.000000pt" height="512.000000pt" viewBox="0 0 512.000000 512.000000"
 preserveAspectRatio="xMidYMid meet">

<g transform="translate(0.000000,512.000000) scale(0.100000,-0.100000)"
fill="#000000" stroke="none">
<path d="M1400 5106 c-689 -100 -1223 -598 -1372 -1280 -19 -88 -22 -130 -22
-326 0 -195 3 -238 22 -323 50 -223 146 -443 269 -617 87 -121 252 -286 373
-372 311 -221 704 -331 1066 -299 71 6 179 23 242 37 l114 26 103 -101 c56
-56 108 -101 116 -101 8 0 125 9 261 22 203 18 249 19 262 9 20 -17 20 -63 -3
-301 -11 -111 -15 -192 -9 -202 17 -34 40 -35 228 -17 239 23 284 23 301 3 11
-13 9 -56 -9 -252 -20 -219 -21 -237 -5 -254 20 -22 49 -23 253 -3 219 21 248
21 267 2 15 -14 14 -36 -6 -265 -13 -138 -20 -259 -16 -271 3 -11 55 -66 115
-121 l109 -100 451 0 c383 0 456 2 487 15 48 20 71 41 94 87 18 35 19 66 19
505 l0 468 -975 975 -974 975 19 73 c66 250 66 565 0 812 -53 198 -162 419
-284 580 -73 95 -229 246 -326 316 -208 149 -433 245 -680 290 -119 22 -372
27 -490 10z m-135 -731 c212 -55 352 -269 317 -481 -24 -144 -115 -263 -249
-327 -64 -30 -75 -32 -178 -32 -102 0 -115 2 -175 31 -95 45 -162 111 -207
202 -37 75 -38 78 -38 192 0 111 1 118 34 184 92 188 295 283 496 231z m2392
-2338 c658 -657 713 -715 713 -745 0 -24 -9 -42 -29 -63 -33 -32 -59 -36 -99
-15 -33 18 -1395 1382 -1412 1414 -26 53 21 122 84 122 28 0 106 -75 743 -713z
m901 -923 c65 -73 -27 -184 -106 -128 -33 23 -45 60 -31 101 21 63 91 78 137
27z"/>
</g>
</svg>
