<svg width="19" height="18" viewBox="0 0 19 18" fill="none" xmlns="http://www.w3.org/2000/svg">
<path d="M18.2803 9.53025L14.344 13.4678C14.2391 13.5727 14.1055 13.6441 13.96 13.6731C13.8145 13.7021 13.6636 13.6872 13.5266 13.6305C13.3895 13.5737 13.2724 13.4776 13.1899 13.3542C13.1075 13.2309 13.0635 13.0859 13.0635 12.9375V9.75H7.25C7.05109 9.75 6.86032 9.67098 6.71967 9.53033C6.57902 9.38968 6.5 9.19891 6.5 9C6.5 8.80109 6.57902 8.61032 6.71967 8.46967C6.86032 8.32902 7.05109 8.25 7.25 8.25H13.0634V5.0625C13.0634 4.91413 13.1074 4.76909 13.1898 4.64572C13.2723 4.52235 13.3894 4.4262 13.5265 4.36944C13.6636 4.31267 13.8144 4.29784 13.9599 4.32683C14.1054 4.35581 14.2391 4.4273 14.344 4.53225L18.2803 8.46975C18.4209 8.6104 18.4999 8.80113 18.4999 9C18.4999 9.19887 18.4209 9.3896 18.2803 9.53025ZM7.25 16.5H2V1.5H7.25C7.44891 1.5 7.63968 1.42098 7.78033 1.28033C7.92098 1.13968 8 0.948912 8 0.75C8 0.551088 7.92098 0.360322 7.78033 0.21967C7.63968 0.0790178 7.44891 0 7.25 0H2C1.60231 0.000446645 1.22104 0.158625 0.939833 0.439833C0.658625 0.721041 0.500447 1.10231 0.5 1.5V16.5C0.500447 16.8977 0.658625 17.279 0.939833 17.5602C1.22104 17.8414 1.60231 17.9996 2 18H7.25C7.44891 18 7.63968 17.921 7.78033 17.7803C7.92098 17.6397 8 17.4489 8 17.25C8 17.0511 7.92098 16.8603 7.78033 16.7197C7.63968 16.579 7.44891 16.5 7.25 16.5Z" fill="white"/>
</svg>
