<?xml version="1.0" standalone="no"?>
<!DOCTYPE svg PUBLIC "-//W3C//DTD SVG 20010904//EN"
 "http://www.w3.org/TR/2001/REC-SVG-20010904/DTD/svg10.dtd">
<svg version="1.0" xmlns="http://www.w3.org/2000/svg"
 width="512.000000pt" height="512.000000pt" viewBox="0 0 512.000000 512.000000"
 preserveAspectRatio="xMidYMid meet">

<g transform="translate(0.000000,512.000000) scale(0.100000,-0.100000)"
fill="#000000" stroke="none">
<path d="M4191 4240 c-28 -7 -310 -284 -1583 -1557 -1647 -1646 -1579 -1575
-1564 -1656 17 -93 130 -147 214 -103 42 23 3100 3087 3112 3119 16 45 12 91
-12 127 -43 62 -98 85 -167 70z"/>
<path d="M2300 3964 c-474 -56 -874 -201 -1265 -458 -214 -141 -462 -356 -496
-431 -59 -129 37 -275 181 -275 68 0 93 15 222 128 209 185 397 311 632 422
320 152 625 220 986 220 212 0 373 -19 560 -66 l135 -34 152 152 c84 84 149
156 145 160 -13 13 -230 84 -343 112 -231 57 -325 68 -609 71 -146 2 -281 1
-300 -1z"/>
<path d="M3882 3397 l-144 -144 84 -53 c118 -75 250 -176 365 -278 117 -106
146 -122 213 -122 144 0 240 145 181 275 -20 44 -141 164 -273 269 -84 68
-245 182 -270 191 -8 3 -72 -54 -156 -138z"/>
<path d="M2378 3210 c-401 -42 -802 -216 -1157 -500 -153 -123 -171 -148 -171
-241 0 -129 123 -223 248 -190 26 7 75 39 134 88 338 277 693 427 1060 449
l116 7 173 173 c95 95 171 176 168 178 -3 3 -47 12 -99 21 -118 19 -357 27
-472 15z"/>
<path d="M3324 2838 c-105 -105 -145 -152 -134 -156 40 -14 210 -107 283 -155
45 -29 133 -95 196 -145 130 -105 167 -121 245 -103 96 22 156 95 156 191 0
71 -18 107 -84 167 -110 101 -349 268 -472 331 l-41 21 -149 -151z"/>
<path d="M2717 2232 c-92 -92 -167 -170 -167 -173 0 -3 35 -9 78 -11 96 -7
240 -54 341 -111 40 -23 116 -76 170 -119 112 -90 156 -106 234 -87 128 31
190 181 122 296 -38 64 -236 213 -379 285 -85 43 -198 88 -219 88 -7 0 -88
-75 -180 -168z"/>
<path d="M2025 2320 c-179 -89 -371 -234 -410 -310 -24 -46 -21 -170 3 -170 4
0 129 122 277 270 148 149 265 270 260 270 -6 0 -65 -27 -130 -60z"/>
<path d="M2420 1647 c-67 -28 -79 -35 -117 -68 -85 -72 -143 -196 -143 -304 0
-106 55 -225 138 -302 15 -13 56 -39 92 -56 61 -30 72 -32 170 -32 97 0 110 2
170 31 248 117 305 443 113 639 -28 27 -76 62 -113 79 -56 27 -78 31 -160 34
-81 2 -103 -1 -150 -21z"/>
</g>
</svg>
