<svg width="62" height="62" viewBox="0 0 62 62" fill="none" xmlns="http://www.w3.org/2000/svg">
<path d="M29.5605 30.0424V11.834C29.5605 11.4528 29.712 11.0872 29.9816 10.8176C30.2512 10.548 30.6168 10.3965 30.998 10.3965C31.3793 10.3965 31.7449 10.548 32.0145 10.8176C32.2841 11.0872 32.4356 11.4528 32.4356 11.834V30.0424C32.4356 30.4236 32.2841 30.7893 32.0145 31.0588C31.7449 31.3284 31.3793 31.4799 30.998 31.4799C30.6168 31.4799 30.2512 31.3284 29.9816 31.0588C29.712 30.7893 29.5605 30.4236 29.5605 30.0424ZM43.2856 12.1225C43.1274 12.0185 42.9503 11.9467 42.7644 11.9113C42.5785 11.8759 42.3874 11.8776 42.2021 11.9162C42.0168 11.9549 41.841 12.0297 41.6847 12.1365C41.5284 12.2432 41.3948 12.3798 41.2914 12.5383C41.188 12.6969 41.117 12.8743 41.0823 13.0603C41.0477 13.2464 41.0501 13.4375 41.0895 13.6226C41.1289 13.8077 41.2045 13.9833 41.3119 14.1391C41.4193 14.295 41.5564 14.4281 41.7153 14.5308C45.265 16.8408 47.9733 20.236 49.4363 24.2104C50.8994 28.1847 51.0389 32.5255 49.8342 36.5857C48.6294 40.6459 46.1449 44.208 42.7509 46.7412C39.3568 49.2744 35.2351 50.643 31 50.643C26.7648 50.643 22.6431 49.2744 19.2491 46.7412C15.8551 44.208 13.3705 40.6459 12.1658 36.5857C10.961 32.5255 11.1006 28.1847 12.5636 24.2104C14.0267 20.236 16.7349 16.8408 20.2846 14.5308C20.4427 14.4277 20.579 14.2945 20.6857 14.1387C20.7923 13.9829 20.8673 13.8076 20.9062 13.6229C20.9451 13.4382 20.9473 13.2476 20.9125 13.062C20.8778 12.8765 20.8069 12.6996 20.7037 12.5414C20.6006 12.3833 20.4674 12.247 20.3116 12.1403C20.1559 12.0337 19.9806 11.9587 19.7959 11.9198C19.6111 11.8809 19.4205 11.8787 19.235 11.9135C19.0494 11.9482 18.8725 12.0192 18.7144 12.1223C14.6457 14.7706 11.5417 18.6628 9.86497 23.2187C8.18827 27.7747 8.02866 32.7505 9.40991 37.4045C10.7912 42.0586 13.6393 46.1417 17.5299 49.0454C21.4205 51.949 26.1453 53.5178 31 53.5178C35.8547 53.5178 40.5794 51.949 44.47 49.0454C48.3606 46.1417 51.2088 42.0586 52.59 37.4045C53.9713 32.7505 53.8117 27.7747 52.135 23.2187C50.4583 18.6628 47.3543 14.7706 43.2856 12.1223V12.1225Z" fill="#A1A1AC"/>
</svg>
