<svg width="20" height="20" viewBox="0 0 20 20" fill="none" xmlns="http://www.w3.org/2000/svg">
<path fill-rule="evenodd" clip-rule="evenodd" d="M16.159 6.66945C17.5951 9.32254 17.192 12.7075 14.9497 14.9497C12.7075 17.192 9.32254 17.5951 6.66945 16.159L16.159 6.66945ZM13.3306 3.84102L3.84102 13.3306C2.40492 10.6775 2.808 7.29251 5.05025 5.05025C7.29251 2.808 10.6775 2.40492 13.3306 3.84102ZM17.0711 2.92893C20.9763 6.83418 20.9763 13.1658 17.0711 17.0711C13.1658 20.9763 6.83417 20.9763 2.92893 17.0711C-0.976311 13.1658 -0.976311 6.83418 2.92893 2.92893C6.83417 -0.97631 13.1658 -0.976311 17.0711 2.92893Z" fill="url(#paint0_linear_2054_2954)"/>
<defs>
<linearGradient id="paint0_linear_2054_2954" x1="0" y1="11.5" x2="20" y2="11.5" gradientUnits="userSpaceOnUse">
<stop stop-color="#ABABB1"/>
<stop offset="1" stop-color="white"/>
</linearGradient>
</defs>
</svg>
