<svg width="20" height="18" viewBox="0 0 20 18" fill="none" xmlns="http://www.w3.org/2000/svg">
<path d="M19.4876 6.65375C19.4864 6.65562 19.4855 6.65759 19.4842 6.65937C19.4427 6.72179 19.3892 6.77533 19.3267 6.81687C19.3249 6.81818 19.3229 6.81912 19.3209 6.82043C19.292 6.83925 19.2614 6.85535 19.2295 6.86853L19.2224 6.87115C19.1908 6.88381 19.158 6.89354 19.1246 6.90022C19.1227 6.9005 19.1211 6.90059 19.1192 6.90097C19.0851 6.90746 19.0504 6.91078 19.0157 6.9109H14.5157C14.3665 6.9109 14.2234 6.85164 14.1179 6.74615C14.0124 6.64066 13.9532 6.49759 13.9532 6.3484C13.9532 6.19922 14.0124 6.05614 14.1179 5.95066C14.2234 5.84517 14.3665 5.7859 14.5157 5.7859H17.6578L15.4359 3.56403C13.9931 2.12453 12.0382 1.31611 10 1.31611C7.96189 1.31611 6.00698 2.12453 4.56412 3.56403C4.45817 3.66716 4.31586 3.72442 4.168 3.72343C4.02014 3.72244 3.87862 3.66326 3.77406 3.55871C3.6695 3.45417 3.61031 3.31265 3.6093 3.16479C3.60829 3.01693 3.66554 2.87462 3.76865 2.76865C5.42257 1.11835 7.66359 0.191528 10 0.191528C12.3365 0.191528 14.5775 1.11835 16.2314 2.76865L18.4532 4.99053V1.84831C18.4532 1.69913 18.5124 1.55605 18.6179 1.45056C18.7234 1.34507 18.8665 1.28581 19.0157 1.28581C19.1649 1.28581 19.3079 1.34507 19.4134 1.45056C19.5189 1.55605 19.5782 1.69913 19.5782 1.84831V6.34831C19.5781 6.38304 19.5747 6.41769 19.5682 6.45181C19.568 6.45368 19.5678 6.45547 19.5674 6.45725C19.5607 6.49066 19.551 6.52339 19.5383 6.55503C19.5375 6.55737 19.5368 6.55972 19.5359 6.56206C19.5227 6.59402 19.5065 6.62468 19.4876 6.65365V6.65375ZM15.4359 14.4359C13.9931 15.8754 12.0382 16.6839 10 16.6839C7.96189 16.6839 6.00698 15.8754 4.56412 14.4359L2.34225 12.2142H5.48437C5.63356 12.2142 5.77663 12.1549 5.88212 12.0494C5.98761 11.9439 6.04687 11.8008 6.04687 11.6517C6.04687 11.5025 5.98761 11.3594 5.88212 11.2539C5.77663 11.1484 5.63356 11.0892 5.48437 11.0892H0.984375C0.949642 11.0893 0.914995 11.0926 0.880875 11.0991C0.879 11.0995 0.877125 11.0996 0.875343 11.0999C0.841996 11.1066 0.809329 11.1163 0.77775 11.1289C0.775312 11.1298 0.772875 11.1305 0.770531 11.1315C0.738647 11.1447 0.708049 11.1608 0.679125 11.1796C0.67725 11.1809 0.675187 11.182 0.673219 11.1832C0.610827 11.2247 0.55732 11.2783 0.515812 11.3407L0.512437 11.3463C0.493557 11.3753 0.477395 11.4059 0.464156 11.4379L0.461625 11.4449C0.448964 11.4766 0.439236 11.5093 0.432563 11.5427L0.431812 11.5482C0.42532 11.5823 0.421994 11.6169 0.421875 11.6517V16.1517C0.421875 16.3008 0.481138 16.4439 0.586627 16.5494C0.692116 16.6549 0.83519 16.7142 0.984375 16.7142C1.13356 16.7142 1.27663 16.6549 1.38212 16.5494C1.48761 16.4439 1.54687 16.3008 1.54687 16.1517V13.0097L3.76875 15.2315C5.42268 16.8817 7.66368 17.8085 10.0001 17.8085C12.3365 17.8085 14.5775 16.8817 16.2314 15.2315C16.3355 15.1257 16.3935 14.9831 16.3929 14.8347C16.3923 14.6863 16.3331 14.5442 16.2282 14.4393C16.1232 14.3343 15.9811 14.2751 15.8327 14.2745C15.6843 14.2739 15.5417 14.332 15.4359 14.436V14.4359Z" fill="white"/>
</svg>
