<svg width="20" height="20" viewBox="0 0 20 20" fill="none" xmlns="http://www.w3.org/2000/svg">
<path d="M7.52974 15.5404C7.01842 17.0742 5.80005 18.201 4.00605 18.7989C3.20138 19.065 2.36213 19.212 1.51492 19.2352C1.31601 19.2352 1.12525 19.1562 0.984593 19.0155C0.843941 18.8749 0.764924 18.6841 0.764924 18.4852C0.788158 17.638 0.93515 16.7988 1.20124 15.9941C1.79917 14.2001 2.92595 12.9816 4.4597 12.4704C4.55314 12.4392 4.6518 12.4268 4.75004 12.4338C4.84829 12.4408 4.9442 12.467 5.03229 12.5111C5.12039 12.5551 5.19895 12.6161 5.26348 12.6905C5.32801 12.7649 5.37726 12.8513 5.40841 12.9447C5.43956 13.0382 5.45199 13.1368 5.44501 13.2351C5.43803 13.3333 5.41177 13.4292 5.36773 13.5173C5.32368 13.6054 5.26272 13.684 5.18831 13.7485C5.1139 13.813 5.02752 13.8623 4.93408 13.8934C3.09124 14.5077 2.52039 16.5081 2.34386 17.6564C3.49155 17.4798 5.49236 16.9091 6.1067 15.0661C6.13785 14.9726 6.1871 14.8862 6.25164 14.8118C6.31617 14.7374 6.39473 14.6764 6.48283 14.6324C6.57093 14.5883 6.66685 14.5621 6.7651 14.5551C6.86335 14.5481 6.96201 14.5605 7.05545 14.5917C7.1489 14.6228 7.23529 14.6721 7.3097 14.7366C7.38411 14.8011 7.44509 14.8797 7.48913 14.9678C7.53318 15.0559 7.55945 15.1518 7.56643 15.2501C7.57342 15.3483 7.56098 15.447 7.52983 15.5404H7.52974ZM16.8945 8.40887L16.0537 9.2499V14.9926C16.0542 15.1896 16.0156 15.3848 15.9402 15.5668C15.8648 15.7489 15.7541 15.9142 15.6144 16.0531L12.5821 19.0852C12.3901 19.2772 12.1496 19.4135 11.8863 19.4796C11.6229 19.5456 11.3466 19.5389 11.0867 19.4603C10.8268 19.3816 10.5932 19.2338 10.4107 19.0328C10.2282 18.8318 10.1037 18.585 10.0505 18.3187L9.3093 14.6124L5.38774 10.6908L1.68142 9.94955C1.41521 9.89631 1.16843 9.77182 0.967408 9.58934C0.766386 9.40687 0.618655 9.17326 0.539969 8.91343C0.461283 8.65359 0.454592 8.37727 0.520609 8.11393C0.586626 7.85059 0.722876 7.6101 0.91483 7.41812L3.9468 4.38596C4.08579 4.24626 4.25109 4.1355 4.43315 4.0601C4.61522 3.98469 4.81043 3.94613 5.00749 3.94665H10.7502L11.5912 3.10562C14.2714 0.425678 17.0215 0.503397 18.0796 0.661272C18.3972 0.707376 18.6914 0.854884 18.9184 1.08181C19.1453 1.30873 19.2928 1.60292 19.339 1.92052C19.4969 2.97858 19.5747 5.72874 16.8946 8.40896L16.8945 8.40887ZM1.97552 8.47862L5.51102 9.18568L9.25024 5.44665H5.00758L1.97552 8.47862ZM14.5535 10.7499L10.8144 14.4891L11.5215 18.0246L14.5535 14.9926V10.7499Z" fill="url(#paint0_linear_2054_1737)"/>
<defs>
<linearGradient id="paint0_linear_2054_1737" x1="0.475586" y1="11.4805" x2="19.4031" y2="11.4805" gradientUnits="userSpaceOnUse">
<stop stop-color="#ABABB1"/>
<stop offset="1" stop-color="white"/>
</linearGradient>
</defs>
</svg>
