<svg width="20" height="20" viewBox="0 0 20 20" fill="none" xmlns="http://www.w3.org/2000/svg">
<path d="M10.0003 4.93738C8.99901 4.93738 8.02022 5.23429 7.1877 5.79057C6.35518 6.34684 5.7063 7.1375 5.32313 8.06255C4.93996 8.9876 4.83971 10.0055 5.03505 10.9875C5.23039 11.9696 5.71254 12.8716 6.42055 13.5796C7.12855 14.2876 8.0306 14.7698 9.01263 14.9651C9.99466 15.1604 11.0126 15.0602 11.9376 14.677C12.8627 14.2939 13.6533 13.645 14.2096 12.8125C14.7659 11.9799 15.0628 11.0011 15.0628 9.99988C15.0613 8.65768 14.5274 7.37088 13.5784 6.4218C12.6293 5.47272 11.3425 4.93887 10.0003 4.93738ZM10.0003 13.9374C9.22151 13.9374 8.46023 13.7065 7.81272 13.2738C7.1652 12.8411 6.66052 12.2262 6.3625 11.5067C6.06448 10.7872 5.9865 9.99551 6.13843 9.23171C6.29036 8.46791 6.66537 7.76632 7.21604 7.21565C7.76671 6.66498 8.46831 6.28997 9.23211 6.13804C9.99591 5.98611 10.7876 6.06409 11.5071 6.3621C12.2266 6.66012 12.8415 7.1648 13.2742 7.81232C13.7068 8.45984 13.9378 9.22112 13.9378 9.99988C13.9366 11.0438 13.5214 12.0446 12.7832 12.7828C12.045 13.521 11.0442 13.9362 10.0003 13.9374ZM19.8633 12.2129L18.43 10.302C18.4339 10.0982 18.4309 9.8631 18.4277 9.70063L19.8627 7.78747C19.9139 7.71914 19.9489 7.64003 19.9651 7.55615C19.9812 7.47227 19.978 7.38582 19.9558 7.30335C19.7258 6.45132 19.387 5.6325 18.9476 4.86716C18.905 4.7931 18.8461 4.7297 18.7754 4.68178C18.7047 4.63386 18.624 4.60268 18.5394 4.5906L16.1785 4.25338C16.0397 4.10435 15.8957 3.96032 15.7467 3.82157L15.4096 1.46179C15.3976 1.37722 15.3664 1.29651 15.3185 1.22578C15.2705 1.15506 15.2072 1.09617 15.1331 1.0536C14.3681 0.613725 13.5495 0.274363 12.6976 0.0439118C12.6152 0.0216087 12.5287 0.0183923 12.4448 0.0345065C12.3608 0.0506207 12.2817 0.085642 12.2133 0.136912L10.3055 1.56791C10.102 1.56059 9.89833 1.56059 9.69484 1.56791L7.78796 0.137568C7.71961 0.0863124 7.64048 0.0512991 7.55658 0.0351851C7.47268 0.0190712 7.38622 0.02228 7.30374 0.044568C6.45171 0.274442 5.63289 0.61327 4.86755 1.05266C4.79349 1.09523 4.73009 1.15411 4.68217 1.22484C4.63425 1.29556 4.60307 1.37628 4.59099 1.46085L4.25377 3.82176C4.10484 3.96032 3.96087 4.10426 3.82187 4.25357L1.46227 4.5906C1.37771 4.60268 1.29701 4.63385 1.22629 4.68175C1.15557 4.72965 1.09668 4.79303 1.05409 4.86707C0.614177 5.63214 0.274814 6.45077 0.0443988 7.30269C0.0220968 7.38517 0.0188808 7.47164 0.0349952 7.55554C0.0511096 7.63944 0.0861307 7.71857 0.137399 7.78691L1.57074 9.69782C1.56681 9.90172 1.56981 10.1368 1.57299 10.2992L0.137961 12.2124C0.0867103 12.2807 0.051692 12.3598 0.0355622 12.4437C0.0194325 12.5276 0.0226147 12.614 0.0448677 12.6965C0.274762 13.5485 0.613589 14.3673 1.05296 15.1326C1.09552 15.2067 1.15441 15.2702 1.22516 15.3181C1.2959 15.3661 1.37664 15.3973 1.46124 15.4094L3.82215 15.7465C3.96071 15.8953 4.10465 16.0393 4.25396 16.1783L4.59099 18.5381C4.60306 18.6226 4.63424 18.7034 4.68216 18.7741C4.73008 18.8448 4.79348 18.9037 4.86755 18.9463C5.63258 19.3861 6.45115 19.7255 7.30299 19.9559C7.38548 19.9782 7.47197 19.9815 7.55588 19.9653C7.6398 19.9492 7.71894 19.9142 7.78731 19.8629L9.69512 18.4319C9.89861 18.4393 10.1023 18.4393 10.3058 18.4319L12.2127 19.8623C12.281 19.9136 12.3601 19.9486 12.4441 19.9647C12.528 19.9808 12.6144 19.9776 12.6969 19.9553C13.5489 19.7254 14.3677 19.3866 15.133 18.9472C15.2071 18.9046 15.2705 18.8458 15.3184 18.775C15.3664 18.7043 15.3976 18.6236 15.4096 18.539L15.7474 16.1742C15.8912 16.0345 16.0324 15.8922 16.171 15.7474L18.5385 15.4093C18.623 15.3972 18.7037 15.366 18.7745 15.3181C18.8452 15.2702 18.9041 15.2068 18.9466 15.1328C19.3865 14.3677 19.7259 13.5491 19.9563 12.6972C19.9786 12.6147 19.9819 12.5282 19.9657 12.4443C19.9496 12.3604 19.9146 12.2813 19.8633 12.2129ZM18.103 14.3351L15.8188 14.6613C15.6925 14.6794 15.5761 14.7398 15.4887 14.8327C15.3713 14.9574 15.027 15.3163 14.8457 15.4768C14.7458 15.5652 14.6806 15.6863 14.6618 15.8185L14.3356 18.1033C13.8027 18.3885 13.2429 18.6201 12.6644 18.7948L10.8186 17.4104C10.7119 17.3302 10.5802 17.2907 10.4471 17.2989C10.1496 17.3168 9.85125 17.3168 9.55374 17.2989C9.42055 17.2908 9.28883 17.3303 9.18212 17.4104L7.3358 18.7952C6.75739 18.6201 6.19778 18.3881 5.66518 18.1025L5.33893 15.8186C5.32007 15.6865 5.25488 15.5654 5.15499 15.4769C4.93193 15.2793 4.72101 15.0684 4.5234 14.8454C4.43494 14.7455 4.31386 14.6803 4.18177 14.6614L1.89699 14.3352C1.6118 13.8023 1.38017 13.2425 1.20549 12.664L2.5899 10.8182C2.66644 10.7162 2.70601 10.5911 2.70212 10.4636C2.69696 10.2922 2.68665 9.79466 2.70127 9.55335C2.70938 9.42017 2.66987 9.28845 2.58981 9.18172L1.20493 7.33551C1.38005 6.75709 1.61212 6.19747 1.89774 5.66488L4.18159 5.33863C4.31371 5.31976 4.43483 5.25453 4.5233 5.1546C4.72091 4.93152 4.93182 4.72061 5.1549 4.52301C5.25481 4.43457 5.32 4.31347 5.33884 4.18138L5.66509 1.8966C6.19792 1.61141 6.75772 1.37978 7.33627 1.2051L9.18193 2.58951C9.28868 2.66952 9.42039 2.70903 9.55355 2.70097C9.85107 2.68303 10.1494 2.68303 10.4469 2.70097C10.5801 2.70906 10.7118 2.66951 10.8184 2.58941L12.6648 1.20463C13.2433 1.37972 13.8029 1.61176 14.3355 1.89735L14.6617 4.18129C14.6806 4.31337 14.7458 4.43446 14.8456 4.52291C15.0687 4.72051 15.2796 4.93143 15.4772 5.15451C15.5657 5.25439 15.6868 5.31958 15.8189 5.33844L18.1036 5.66469C18.3888 6.19752 18.6204 6.75732 18.7951 7.33588L17.4107 9.18163C17.3342 9.2837 17.2946 9.40876 17.2985 9.53629C17.3037 9.70766 17.314 10.2052 17.2993 10.4464C17.2912 10.5796 17.3307 10.7114 17.4108 10.8181L18.7956 12.6644C18.6206 13.2428 18.3886 13.8024 18.103 14.335V14.3351Z" fill="white"/>
</svg>
