<svg width="19" height="22" viewBox="0 0 19 22" fill="none" xmlns="http://www.w3.org/2000/svg">
<path d="M14.4999 14.1874C13.9989 14.1873 13.5035 14.2931 13.0463 14.4978C12.589 14.7026 12.1803 15.0018 11.8468 15.3757L7.26239 12.4285C7.46024 11.9782 7.5624 11.4917 7.5624 10.9999C7.5624 10.508 7.46024 10.0215 7.26239 9.57122L11.8468 6.6241C12.4442 7.29001 13.2706 7.70637 14.1613 7.7902C15.052 7.87404 15.9416 7.61919 16.6528 7.07645C17.364 6.53371 17.8445 5.74293 17.9987 4.86169C18.153 3.98045 17.9695 3.07346 17.4848 2.32147C17.0002 1.56947 16.25 1.02769 15.3838 0.804078C14.5176 0.58047 13.5989 0.691457 12.8108 1.11492C12.0227 1.53839 11.4232 2.24324 11.1316 3.08901C10.84 3.93478 10.8778 4.85938 11.2374 5.67854L6.65302 8.62557C6.17211 8.08761 5.53917 7.70838 4.83799 7.53805C4.13681 7.36773 3.40043 7.41434 2.72632 7.67173C2.05221 7.92911 1.47216 8.38514 1.06292 8.97944C0.653688 9.57374 0.43457 10.2783 0.43457 10.9999C0.43457 11.7215 0.653688 12.426 1.06292 13.0203C1.47216 13.6146 2.05221 14.0706 2.72632 14.328C3.40043 14.5854 4.13681 14.632 4.83799 14.4617C5.53917 14.2914 6.17211 13.9121 6.65302 13.3742L11.2374 16.3212C10.9298 17.0241 10.8574 17.8074 11.0309 18.5547C11.2044 19.302 11.6145 19.9733 12.2003 20.4688C12.786 20.9642 13.5161 21.2573 14.2818 21.3044C15.0476 21.3514 15.808 21.15 16.4501 20.7301C17.0921 20.3102 17.5814 19.6942 17.8452 18.9737C18.1089 18.2533 18.133 17.467 17.9139 16.7318C17.6947 15.9966 17.2441 15.3517 16.6289 14.8933C16.0138 14.4348 15.2671 14.1873 14.4999 14.1874ZM14.4999 1.81238C14.982 1.81238 15.4532 1.95534 15.8541 2.22317C16.2549 2.49101 16.5674 2.8717 16.7518 3.31709C16.9363 3.76248 16.9846 4.25258 16.8906 4.72541C16.7965 5.19824 16.5644 5.63256 16.2235 5.97345C15.8826 6.31434 15.4483 6.54649 14.9754 6.64055C14.5026 6.7346 14.0125 6.68633 13.5671 6.50184C13.1217 6.31735 12.741 6.00493 12.4732 5.60408C12.2053 5.20324 12.0624 4.73197 12.0624 4.24988C12.0631 3.60364 12.3201 2.98407 12.7771 2.5271C13.2341 2.07014 13.8536 1.8131 14.4999 1.81238ZM3.99989 13.4374C3.5178 13.4374 3.04653 13.2944 2.64569 13.0266C2.24484 12.7588 1.93242 12.3781 1.74793 11.9327C1.56345 11.4873 1.51518 10.9972 1.60923 10.5243C1.70328 10.0515 1.93543 9.6172 2.27632 9.27631C2.61721 8.93542 3.05153 8.70327 3.52436 8.60922C3.99719 8.51516 4.48729 8.56344 4.93268 8.74792C5.37808 8.93241 5.75876 9.24483 6.0266 9.64568C6.29443 10.0465 6.43739 10.5178 6.43739 10.9999C6.43667 11.6461 6.17963 12.2657 5.72267 12.7227C5.2657 13.1796 4.64613 13.4367 3.99989 13.4374ZM14.4999 20.1874C14.0178 20.1874 13.5465 20.0444 13.1457 19.7766C12.7448 19.5088 12.4324 19.1281 12.2479 18.6827C12.0634 18.2373 12.0152 17.7472 12.1092 17.2743C12.2033 16.8015 12.4354 16.3672 12.7763 16.0263C13.1172 15.6854 13.5515 15.4533 14.0244 15.3592C14.4972 15.2652 14.9873 15.3134 15.4327 15.4979C15.8781 15.6824 16.2588 15.9948 16.5266 16.3957C16.7944 16.7965 16.9374 17.2678 16.9374 17.7499C16.9367 18.3961 16.6796 19.0157 16.2227 19.4727C15.7657 19.9296 15.1461 20.1867 14.4999 20.1874Z" fill="white"/>
</svg>
