<svg width="16" height="16" viewBox="0 0 16 16" fill="none" xmlns="http://www.w3.org/2000/svg">
<path d="M15.3438 1.375C15.3434 1.08502 15.2281 0.807014 15.023 0.601967C14.818 0.396921 14.54 0.281581 14.25 0.28125H1.75C1.46002 0.281581 1.18201 0.396921 0.976967 0.601967C0.771921 0.807014 0.656581 1.08502 0.65625 1.375V5.95836C0.65625 12.8394 6.49094 15.1225 7.66055 15.5104C7.88069 15.585 8.11931 15.585 8.33945 15.5104C9.50899 15.1225 15.3438 12.8393 15.3438 5.95836L15.3438 1.375ZM8.04438 14.6205C8.01582 14.6315 7.98418 14.6315 7.95563 14.6205C6.8932 14.2683 1.59375 12.1952 1.59375 5.95836V1.375C1.59377 1.33357 1.61024 1.29384 1.63954 1.26454C1.66884 1.23524 1.70857 1.21877 1.75 1.21875H14.25C14.2914 1.21879 14.3311 1.23527 14.3604 1.26456C14.3897 1.29385 14.4062 1.33357 14.4063 1.375V5.95836C14.4063 12.1951 9.1068 14.2682 8.04438 14.6205ZM11.7766 4.80133C11.8191 4.84585 11.8524 4.89832 11.8746 4.95572C11.8968 5.01312 11.9076 5.07434 11.9061 5.13588C11.9047 5.19742 11.8912 5.25808 11.8663 5.31439C11.8414 5.3707 11.8057 5.42156 11.7612 5.46406L7.17781 9.83906C7.09062 9.92228 6.97472 9.96871 6.85418 9.96871C6.73365 9.96871 6.61774 9.92228 6.53055 9.83906L4.23891 7.65156C4.15052 7.56537 4.0997 7.4478 4.09748 7.32436C4.09527 7.20093 4.14183 7.0816 4.22707 6.9923C4.31231 6.903 4.42934 6.85092 4.55275 6.84739C4.67615 6.84386 4.79596 6.88916 4.88617 6.97344L6.85414 8.85195L11.1139 4.78594C11.2038 4.70012 11.3242 4.65353 11.4484 4.65642C11.5727 4.6593 11.6907 4.71143 11.7766 4.80133V4.80133Z" fill="#23B65D"/>
</svg>
