<svg width="20" height="20" viewBox="0 0 20 20" fill="none" xmlns="http://www.w3.org/2000/svg">
<path d="M10 0.4375C8.10872 0.4375 6.25991 0.998331 4.68736 2.04907C3.11482 3.09981 1.88917 4.59327 1.16541 6.34059C0.441643 8.08791 0.252274 10.0106 0.621245 11.8656C0.990216 13.7205 1.90096 15.4244 3.2383 16.7617C4.57564 18.099 6.27951 19.0098 8.13445 19.3788C9.9894 19.7477 11.9121 19.5584 13.6594 18.8346C15.4067 18.1108 16.9002 16.8852 17.9509 15.3126C19.0017 13.7401 19.5625 11.8913 19.5625 10C19.5597 7.46474 18.5513 5.03414 16.7586 3.24144C14.9659 1.44874 12.5353 0.440354 10 0.4375ZM10 18.4375C8.33122 18.4375 6.69992 17.9426 5.31238 17.0155C3.92484 16.0884 2.84338 14.7706 2.20477 13.2289C1.56616 11.6871 1.39907 9.99064 1.72463 8.35393C2.05019 6.71721 2.85379 5.21379 4.03379 4.03379C5.2138 2.85378 6.71722 2.05019 8.35393 1.72462C9.99064 1.39906 11.6871 1.56615 13.2289 2.20477C14.7706 2.84338 16.0884 3.92484 17.0155 5.31238C17.9427 6.69992 18.4375 8.33122 18.4375 10C18.435 12.237 17.5452 14.3816 15.9634 15.9634C14.3816 17.5452 12.237 18.435 10 18.4375ZM13.5798 9.03419C13.632 9.08642 13.6734 9.14844 13.7017 9.21669C13.73 9.28494 13.7445 9.35809 13.7445 9.43197C13.7445 9.50584 13.73 9.57899 13.7017 9.64725C13.6734 9.7155 13.632 9.77751 13.5798 9.82975C13.5275 9.88199 13.4655 9.92342 13.3973 9.9517C13.329 9.97997 13.2558 9.99452 13.182 9.99452C13.1081 9.99452 13.0349 9.97997 12.9667 9.9517C12.8984 9.92342 12.8364 9.88199 12.7842 9.82975L10.5625 7.60797V13.75C10.5625 13.8992 10.5032 14.0423 10.3978 14.1477C10.2923 14.2532 10.1492 14.3125 10 14.3125C9.85082 14.3125 9.70775 14.2532 9.60226 14.1477C9.49677 14.0423 9.4375 13.8992 9.4375 13.75V7.60797L7.21582 9.82975C7.16358 9.88199 7.10156 9.92342 7.03331 9.9517C6.96506 9.97997 6.89191 9.99452 6.81804 9.99452C6.74416 9.99452 6.67101 9.97997 6.60276 9.9517C6.53451 9.92342 6.47249 9.88199 6.42025 9.82975C6.36802 9.77751 6.32658 9.7155 6.29831 9.64725C6.27004 9.57899 6.25549 9.50584 6.25549 9.43197C6.25549 9.35809 6.27004 9.28494 6.29831 9.21669C6.32658 9.14844 6.36802 9.08642 6.42025 9.03419L9.60222 5.85231C9.65446 5.80007 9.71647 5.75863 9.78472 5.73035C9.85297 5.70208 9.92613 5.68753 10 5.68753C10.0739 5.68753 10.147 5.70208 10.2153 5.73035C10.2835 5.75863 10.3456 5.80007 10.3978 5.85231L13.5798 9.03419Z" fill="white"/>
</svg>
