<svg width="40" height="40" viewBox="0 0 40 40" fill="none" xmlns="http://www.w3.org/2000/svg">
<path d="M39.125 20.0003C39.1271 16.8178 38.335 13.6852 36.8205 10.8862C35.3061 8.0872 33.117 5.7104 30.4519 3.97119C27.7867 2.23197 24.7297 1.18533 21.5578 0.926104C18.3859 0.666882 15.1995 1.20328 12.2873 2.48669C9.37515 3.77009 6.82927 5.75993 4.88042 8.27586C2.93156 10.7918 1.64136 13.7543 1.12672 16.8948C0.612087 20.0354 0.889297 23.2547 1.93323 26.2611C2.97716 29.2674 4.7548 31.9658 7.10506 34.1115C7.16953 34.1869 7.24375 34.2533 7.32575 34.3091C10.8188 37.4117 15.3285 39.1253 20.0005 39.1252C24.6724 39.1251 29.1821 37.4113 32.675 34.3086C32.7563 34.2531 32.83 34.1872 32.894 34.1124C34.8578 32.3236 36.4265 30.1443 37.4994 27.7142C38.5724 25.2841 39.1261 22.6567 39.125 20.0003ZM3.125 20.0003C3.12291 17.246 3.79503 14.533 5.0827 12.0982C6.37037 9.66345 8.23443 7.58087 10.5122 6.03229C12.7899 4.4837 15.4121 3.51618 18.1498 3.21419C20.8875 2.9122 23.6575 3.28492 26.218 4.29981C28.7785 5.3147 31.0517 6.94092 32.8391 9.03649C34.6265 11.1321 35.8738 13.6333 36.4721 16.3218C37.0704 19.0104 37.0015 21.8045 36.2714 24.4603C35.5414 27.1161 34.1724 29.5528 32.2839 31.5578C30.5157 28.8093 27.8735 26.7364 24.7833 25.6731C26.3238 24.6464 27.493 23.1513 28.1182 21.4089C28.7434 19.6664 28.7914 17.769 28.2551 15.9972C27.7188 14.2253 26.6266 12.6731 25.14 11.5698C23.6534 10.4666 21.8512 9.87099 20 9.87099C18.1488 9.87099 16.3466 10.4666 14.86 11.5698C13.3734 12.6731 12.2812 14.2253 11.7449 15.9972C11.2086 17.769 11.2566 19.6664 11.8818 21.4089C12.507 23.1513 13.6762 24.6464 15.2167 25.6731C12.1264 26.7364 9.48428 28.8093 7.71612 31.5578C4.76488 28.4336 3.12201 24.2979 3.125 20.0003V20.0003ZM13.625 18.5003C13.625 17.2394 13.9989 16.0069 14.6994 14.9585C15.3999 13.9101 16.3955 13.093 17.5604 12.6105C18.7253 12.128 20.0071 12.0018 21.2437 12.2478C22.4803 12.4937 23.6162 13.1009 24.5078 13.9925C25.3994 14.884 26.0065 16.0199 26.2525 17.2566C26.4985 18.4932 26.3722 19.775 25.8897 20.9399C25.4072 22.1047 24.5901 23.1004 23.5418 23.8009C22.4934 24.5014 21.2609 24.8753 20 24.8753C18.3098 24.8733 16.6895 24.2011 15.4943 23.0059C14.2992 21.8108 13.6269 20.1904 13.625 18.5003V18.5003ZM9.39556 33.1164C10.4969 31.2885 12.052 29.7763 13.91 28.7265C15.768 27.6768 17.8658 27.1251 19.9999 27.1251C22.134 27.1251 24.2318 27.6768 26.0898 28.7265C27.9478 29.7763 29.5029 31.2885 30.6042 33.1164C27.605 35.5482 23.8611 36.8752 19.9999 36.8752C16.1387 36.8752 12.3948 35.5482 9.39556 33.1164V33.1164Z" fill="white"/>
</svg>
