<?xml version="1.0" standalone="no"?>
<!DOCTYPE svg PUBLIC "-//W3C//DTD SVG 20010904//EN"
 "http://www.w3.org/TR/2001/REC-SVG-20010904/DTD/svg10.dtd">
<svg version="1.0" xmlns="http://www.w3.org/2000/svg"
 width="512.000000pt" height="512.000000pt" viewBox="0 0 512.000000 512.000000"
 preserveAspectRatio="xMidYMid meet">

<g transform="translate(0.000000,512.000000) scale(0.100000,-0.100000)"
fill="#000000" stroke="none">
<path d="M2300 4144 c-25 -3 -114 -16 -199 -30 -279 -46 -524 -127 -801 -265
-433 -217 -800 -519 -1110 -917 -163 -210 -197 -282 -187 -398 6 -84 38 -147
144 -289 406 -540 927 -926 1528 -1132 270 -92 502 -133 806 -140 238 -6 378
3 569 38 716 128 1389 548 1874 1170 168 216 203 289 193 405 -6 84 -38 147
-144 289 -506 674 -1188 1107 -1955 1241 -135 23 -184 27 -413 29 -143 2 -280
1 -305 -1z m377 -515 c663 -74 1102 -728 917 -1365 -103 -357 -381 -635 -738
-738 -374 -109 -778 -4 -1056 274 -421 421 -421 1100 0 1520 129 130 291 225
468 275 147 42 257 51 409 34z"/>
<path d="M2435 3245 c-99 -18 -175 -49 -259 -106 -229 -153 -349 -423 -304
-684 20 -117 49 -189 109 -280 207 -309 615 -402 936 -214 73 43 198 168 242
242 189 321 93 736 -217 938 -156 102 -329 137 -507 104z"/>
</g>
</svg>
