<svg width="20" height="20" viewBox="0 0 20 20" fill="none" xmlns="http://www.w3.org/2000/svg">
<path d="M18.7748 14.2481C19.4011 12.9555 19.7339 11.5404 19.7495 10.1042C19.7652 8.66792 19.4632 7.24596 18.8653 5.94C18.2673 4.63405 17.3882 3.47637 16.2907 2.54976C15.1932 1.62316 13.9045 0.95053 12.5168 0.57999C12.4999 0.574772 12.4829 0.570144 12.4656 0.566115C10.9432 0.168528 9.34718 0.145638 7.814 0.499402C6.28082 0.853166 4.85615 1.57306 3.66186 2.59749C3.61615 2.6292 3.57414 2.66593 3.53661 2.70699C2.05508 4.0182 1.00772 5.74928 0.533768 7.6701C0.059816 9.59093 0.181722 11.6105 0.883279 13.4604C1.58484 15.3103 2.83281 16.9028 4.46131 18.0263C6.0898 19.1497 8.02168 19.751 10.0001 19.75C10.0691 19.75 10.1378 19.7488 10.2065 19.7474L10.2115 19.7476C10.2148 19.7476 10.218 19.7473 10.2212 19.7472C11.9919 19.7054 13.7179 19.1826 15.2142 18.2349C16.7106 17.2872 17.9209 15.9503 18.7155 14.3673L18.7169 14.3654C18.7396 14.3281 18.759 14.2889 18.7748 14.2482V14.2481ZM18.2501 9.99999C18.251 10.9829 18.0753 11.958 17.7316 12.8788L13.3816 10.2032C13.2033 10.0933 13.0038 10.0222 12.7962 9.99446L10.6569 9.70608C10.3819 9.67044 10.1024 9.7112 9.84906 9.8239C9.5957 9.9366 9.37826 10.1169 9.22058 10.345H8.41967L8.06295 9.60812C7.96358 9.40279 7.8187 9.22283 7.63932 9.08191C7.45994 8.941 7.25079 8.84285 7.02777 8.79493L6.4122 8.66274L6.64827 8.1024C6.70555 7.96638 6.80169 7.85029 6.92464 7.76866C7.0476 7.68703 7.1919 7.64349 7.33949 7.64349H8.84267C9.0963 7.64338 9.34576 7.57907 9.56783 7.45655L10.7156 6.8228C10.8166 6.76699 10.9109 6.69974 10.9965 6.62237L13.5193 4.34068C13.7368 4.14549 13.8921 3.89071 13.966 3.60798C14.0399 3.32525 14.0291 3.02704 13.935 2.7504C15.2396 3.4592 16.3289 4.50666 17.0883 5.78248C17.8477 7.0583 18.2491 8.51527 18.2501 9.99999ZM1.75011 9.99999C1.74862 8.7079 2.0525 7.43374 2.63699 6.2814L3.61424 8.88952C3.70194 9.12529 3.84779 9.33509 4.03823 9.49944C4.22867 9.66379 4.45755 9.77737 4.70361 9.82965L5.22055 9.94074L5.22477 9.94168L6.35483 10.1845C6.46632 10.2084 6.57087 10.2575 6.66054 10.328C6.75022 10.3984 6.82265 10.4884 6.87233 10.591L7.06958 10.9985C7.19237 11.2522 7.38415 11.4662 7.62293 11.6159C7.86171 11.7656 8.13784 11.845 8.41967 11.845H8.52364L7.80224 13.4638C7.68259 13.7318 7.64427 14.029 7.69203 14.3186C7.7398 14.6081 7.87154 14.8773 8.07092 15.0927L9.57561 16.7202C9.65551 16.8066 9.71394 16.9106 9.74619 17.0238C9.77843 17.137 9.78359 17.2562 9.76124 17.3717L9.59342 18.2399C7.47925 18.133 5.48677 17.2186 4.02727 15.6853C2.56776 14.152 1.75263 12.1169 1.75011 9.99999Z" fill="url(#paint0_linear_2054_2222)"/>
<defs>
<linearGradient id="paint0_linear_2054_2222" x1="0.25" y1="11.4625" x2="19.7501" y2="11.4625" gradientUnits="userSpaceOnUse">
<stop stop-color="#ABABB1"/>
<stop offset="1" stop-color="white"/>
</linearGradient>
</defs>
</svg>
